/* XPM */
static char *_b86eb9572cc4c468ff53b7b07c150f8HpAf47xqcqh62o06[] = {
/* columns rows colors chars-per-pixel */
"32 32 145 2 ",
"   c None",
".  c #4C3A17",
"X  c #525435",
"o  c #54563B",
"O  c #695529",
"+  c #6D5C2E",
"@  c #78703E",
"#  c #4D6442",
"$  c #576644",
"%  c #516A49",
"&  c #5D724D",
"*  c #547556",
"=  c #597355",
"-  c #587A5A",
";  c #616841",
":  c #686C41",
">  c #657E58",
",  c #BB7434",
"<  c #BF7738",
"1  c #C07733",
"2  c #CC7E35",
"3  c #CB7F3A",
"4  c #817444",
"5  c #837D48",
"6  c #857658",
"7  c #8F7C59",
"8  c #927E59",
"9  c #A47542",
"0  c #A97D47",
"q  c #A77F4B",
"w  c #AA7E4B",
"e  c #8B7966",
"r  c #55815F",
"t  c #758256",
"y  c #7B8453",
"u  c #7B8B58",
"i  c #5B8364",
"p  c #5C8966",
"a  c #5B8C6C",
"s  c #5B906F",
"d  c #5C9878",
"f  c #618161",
"g  c #CF8336",
"h  c #CB8338",
"j  c #D08037",
"k  c #D68739",
"l  c #D9853B",
"z  c #DA883B",
"x  c #81814E",
"c  c #8D844A",
"v  c #92854D",
"b  c #838752",
"n  c #928952",
"m  c #96875A",
"M  c #9A9459",
"N  c #979A5C",
"B  c #AC8653",
"V  c #AB8B52",
"C  c #AD8D5B",
"Z  c #A29A5E",
"A  c #969E64",
"S  c #989D62",
"D  c #A39A63",
"F  c #B59C6B",
"G  c #A29174",
"H  c #A5A466",
"J  c #ACAC67",
"K  c #ABA66C",
"L  c #ADAA6A",
"P  c #B7A168",
"I  c #BEA66B",
"U  c #B2B26D",
"Y  c #B8A272",
"T  c #B0AA73",
"R  c #BFAA7B",
"E  c #BEB27F",
"W  c #BEB97C",
"Q  c #C68A45",
"!  c #CA8F46",
"~  c #D18F42",
"^  c #D88E41",
"/  c #D59443",
"(  c #DA9546",
")  c #D7964A",
"_  c #D6984A",
"`  c #DE9D4B",
"'  c #E09E4C",
"]  c #C0BC7E",
"[  c #C4C37A",
"{  c #CAC67E",
"}  c #C3B787",
"|  c #C3BE80",
" . c #CBBB89",
".. c #D9B48E",
"X. c #F0BA8E",
"o. c #F1AE91",
"O. c #F0B695",
"+. c #C3C380",
"@. c #CDCC84",
"#. c #CBC48E",
"$. c #CAC98A",
"%. c #D1C283",
"&. c #D0CF83",
"*. c #D3D287",
"=. c #D2D28F",
"-. c #DCDA8D",
";. c #CFC190",
":. c #CEC599",
">. c #DAC696",
",. c #D2C995",
"<. c #D8CB97",
"1. c #D5CC9B",
"2. c #D7D596",
"3. c #DBD493",
"4. c #DDD39E",
"5. c #DFDA9E",
"6. c #EFCF93",
"7. c #F1CA99",
"8. c #E0D792",
"9. c #E1DE90",
"0. c #E2DA9E",
"q. c #E5E295",
"w. c #E8E597",
"e. c #E3E298",
"r. c #EBE69B",
"t. c #EDE99B",
"y. c #F0E79D",
"u. c #F0E99E",
"i. c #DBD2A1",
"p. c #DFD9A3",
"a. c #F1C6A0",
"s. c #F2CDA1",
"d. c #E4DCA5",
"f. c #E9DEA8",
"g. c #F0DAA9",
"h. c #E5E4A3",
"j. c #EBE5A3",
"k. c #EDEAA4",
"l. c #ECE5AC",
"z. c #ECEAAC",
"x. c #F0E9A0",
"c. c #F1EBAE",
"v. c #EFEDB2",
"b. c #F2EDB1",
"n. c #F2F0B0",
/* pixels */
"                                                                ",
"                                                                ",
"                                                                ",
"                                                                ",
"                                                                ",
"                          4 M Z v O                             ",
"                        K 3.j.j.e.{ 5 X                         ",
"                      T l.b.b.c.x.y.-.x X                       ",
"                    n 5.b.b.b.b.c.t.y.[ ;                       ",
"                    L z.b.b.b.b.c.x.t.w.b o                     ",
"                    | c.5.f.b.b.c.j.r.t.H $                     ",
"                    2.i.6 G l.b.,.7 E t.[ &                     ",
"                  D l.d.G 8 l.n.:.e m t.-.t %                   ",
"                  $.b.b.0.d.1.,.d.#.3.r.r.A =                   ",
"                D z.f.o.a.v.i.i.c.c.7.6.y.+.> $                 ",
"                $.b.l.a...F B B F >.O.X.r.9.u -                 ",
"              n h.v.v.E B ! z g 1 , } z.r.r.S i                 ",
"              H z.n.1.B _ ' ' ( z j 9 2.t.y.J p =               ",
"              U z.n.P ! ` ` ` ` ~ l , P t.t.U p i               ",
"              J z.z.C _ ` ` ` ` ( k h V r.t.J p p               ",
"              M h.z.C ( ` ` ` ` ( l 2 B w.w.N s i               ",
"                2.n.Y Q ` ` ` ` z k , ] y.-.t d %               ",
"                K k.4.w _ ` ' ` k 2 9 3.y.U f a                 ",
"                  W b.;.B Q k g , 9 %.t.&.y a #                 ",
"                  @ ] x.d.] C V ] 3.t.@.y - #                   ",
"                      D $.8.r.w.9.*.H : $                       ",
"                          v M Z 5 + .                           ",
"                                                                ",
"                                                                ",
"                                                                ",
"                                                                ",
"                                                                "
};
