/* XPM */
static char *_ac92ec5cbf54e4cd6eb7e1d0ec03d42C0jWGwAx0oearLLA[] = {
/* columns rows colors chars-per-pixel */
"64 62 168 2 ",
"   c None",
".  c #1D1D20",
"X  c #2B2C25",
"o  c #2D2D2F",
"O  c #38392C",
"+  c #373739",
"@  c #393938",
"#  c #6B3F31",
"$  c #595C39",
"%  c #6D4233",
"&  c #704635",
"*  c #724934",
"=  c #724738",
"-  c #754B3C",
";  c #784E3F",
":  c #7E5D39",
">  c #5F623B",
",  c #60633B",
"<  c #5D5F41",
"1  c gray33",
"2  c #774D40",
"3  c #794F41",
"4  c #7C5343",
"5  c #6D7041",
"6  c #797E47",
"7  c #767A46",
"8  c #5F5F60",
"9  c #737374",
"0  c #7C7B7C",
"q  c #84663B",
"w  c #8F773F",
"e  c #825649",
"r  c #85594C",
"t  c #895D4F",
"y  c #8B5F50",
"u  c #896947",
"i  c #947E41",
"p  c #92744D",
"a  c #8E6153",
"s  c #906355",
"d  c #9A6C5D",
"f  c #956759",
"g  c #57853E",
"h  c #59873F",
"j  c #598641",
"k  c #5C8943",
"l  c #5B8744",
"z  c #608E44",
"x  c #628B4B",
"c  c #7E8249",
"v  c #649147",
"b  c #679548",
"n  c #689649",
"m  c #6D9A4B",
"M  c #709F4D",
"N  c #6A9155",
"B  c #6E935A",
"V  c #71955E",
"C  c #73A14F",
"Z  c #75A450",
"A  c #79A752",
"S  c #7CAB54",
"D  c #749762",
"F  c #799A67",
"G  c #84894C",
"H  c #898E4E",
"J  c #998744",
"K  c #A18E4C",
"L  c #A49848",
"P  c #A18A55",
"I  c #A69356",
"U  c #A99558",
"Y  c #A89457",
"T  c #80AF56",
"R  c #9EA557",
"E  c #81B057",
"W  c #85B459",
"Q  c #88B75B",
"!  c #8CBB5D",
"~  c #90BF5F",
"^  c #ADA44B",
"/  c #B5B14E",
"(  c #A6AD5A",
")  c #A4AB59",
"_  c #B5AD54",
"`  c #B3A45D",
"'  c #B5A95C",
"]  c #AAB15C",
"[  c #B6B859",
"{  c #809E6F",
"}  c #819F71",
"|  c #95987A",
" . c #84A175",
".. c #8BA67C",
"X. c #A4A963",
"o. c #BDB362",
"O. c #B5BC61",
"+. c #C1B863",
"@. c #90C05F",
"#. c #94C361",
"$. c #9CCC66",
"%. c #98C763",
"&. c #A1CF67",
"*. c #BCC464",
"=. c #A6D168",
"-. c #ABD469",
";. c #A3D067",
":. c #B1D66A",
">. c #B6D96C",
",. c #BADB6C",
"<. c #C7CE56",
"1. c #CBD257",
"2. c #CCD658",
"3. c #D1DC5A",
"4. c #D5E05E",
"5. c #C9C568",
"6. c #C6C767",
"7. c #C2DF6E",
"8. c #CFD86C",
"9. c #D3DC6D",
"0. c #D6DD65",
"q. c #C5E16F",
"w. c #C8E26F",
"e. c #D9E464",
"r. c #DCE769",
"t. c #DEE96A",
"y. c #D7E262",
"u. c #CDE471",
"i. c #D2E672",
"p. c #DCE471",
"a. c #D5E973",
"s. c #DBEC74",
"d. c #E1EB6D",
"f. c #E0E773",
"g. c #E2EE75",
"h. c #E5EE75",
"j. c #E2ED74",
"k. c #E7F176",
"l. c #E6F176",
"z. c #E6F176",
"x. c #E8F277",
"c. c #E9F277",
"v. c #E9F377",
"b. c #E8F377",
"n. c #E8F277",
"m. c #E9F378",
"M. c #E9F478",
"N. c #EAF478",
"B. c #EBF578",
"V. c #EAF478",
"C. c #979892",
"Z. c #91A983",
"A. c #9EB293",
"S. c #A1B497",
"D. c #A5B69B",
"F. c #A8B99F",
"G. c #ACBBA3",
"H. c #B1BEAA",
"J. c #B6C1AF",
"K. c #BEC7BA",
"L. c #B8C3B2",
"P. c #C9CEC6",
"I. c #C7CDC5",
"U. c #CED1CD",
"Y. c #D5D6D5",
"T. c #D7D7D8",
"R. c #D8D7D8",
"E. c #D9D8D9",
/* pixels */
"                                                                                                                                ",
"                                                                                                                                ",
"                                                                                                                                ",
"                                                                                                                                ",
"                                                                                                                                ",
"                                                                                                                                ",
"                                                              k k                                                               ",
"                                                      k j j j j j j j l k                                                       ",
"                                                  k j l b A E Q Q W Z v k j l                                                   ",
"                                                l j b Q %.$.$.$.$.$.$.%.S v j k                                                 ",
"                                              l j C #.$.$.$.$.$.$.$.$.$.$.#.m j k                                               ",
"                                            k j C %.$.$.&.>.u.u.u.7.>.$.$.$.#.n l                                               ",
"                                            j v #.$.$.-.a.k.V.x.l.V.h.i.-.$.$.~ k l                                             ",
"                                          j j E $.$.:.z.x.x.x.x.V.l.z.V.s.-.$.$.A j k                                           ",
"                                          j m $.$.=.s.B.x.x.x.x.l.V.l.V.l.a.$.$.#.v j                                           ",
"                                        k j Q $.$.q.V.z.x.x.x.x.V.l.V.l.l.l.,.$.$.S j k                                         ",
"                                        j b %.$.-.j.V.x.x.x.x.x.x.x.x.x.x.x.s.&.$.@.k j                                         ",
"                                      k j S $.$.w.x.x.x.x.x.x.x.x.x.x.x.x.z.z.,.$.$.C g                                         ",
"                                      l k #.$.=.s.V.x.x.x.x.x.x.x.x.x.x.x.x.b.a.;.$.Q l l                                       ",
"                                      j m $.$.,.z.x.x.x.x.x.x.x.x.x.x.x.x.x.x.z.:.$.$.b j                                       ",
"                                    k j Q $.$.i.V.V.x.x.V.k.V.l.x.x.x.x.b.z.b.x.w.$.$.S h                                       ",
"                                    j v %.$.-.g.V.V.V.x.k.V.l.V.x.x.x.x.b.b.B.B.s.;.$.@.k j                                     ",
"                                    j S $.$.q.B.9.] O.h.V.k.V.l.x.x.x.x.z.*.( 8.b.>.$.$.C g                                     ",
"                                  l k @.$.;.s.p.$ @ C.X.h.V.l.V.x.x.x.B.R X 9 | 9.i.$.$.Q l l                                   ",
"                                  j Z $.$.,.B.O.X 8 9 < f.B.l.V.x.x.z.h.$ + 0 1 ( b.-.$.%.m h                                   ",
"                                j k @.$.&.i.B.6.O + . 5 h.l.V.l.x.x.V.z.6 o o X *.B.u.$.$.Q l l                                 ",
"                              k j Z $.$.,.z.x.h.( > 7 8.V.V.l.V.x.x.B.x.9.6 , ) j.b.j.-.$.$.m g                                 ",
"                              j k #.$.&.a.x.z.r.y.e.g.x.p.] h.V.x.x.O.p.V.V.r.3.r.z.b.u.$.$.Q l j                               ",
"                              j A $.$.,.l.l.h.e.3.e.z.x.j.G ( j.j.[ c f.V.x.r.3.y.z.x.z.-.$.$.m j                               ",
"                            j k #.$.;.a.V.l.V.h.j.z.x.x.z.p.H c c G 9.b.x.x.z.j.h.x.x.x.u.$.$.Q j l                             ",
"                            j C $.$.,.z.V.V.l.V.z.x.x.x.z.V.z.9.9.g.b.x.x.x.x.x.x.x.V.z.z.-.$.$.b j                             ",
"                          k j Q $.$.i.B.l.V.V.l.b.b.x.x.x.B.V.B.B.B.x.x.x.x.x.x.x.x.x.V.V.q.$.$.S j                             ",
"                          l v %.$.-.h.x.x.x.x.x.z.V.V.V.f.+.` I I ` 5.f.M.V.l.V.k.V.k.k.m.s.&.$.! k k                           ",
"                          g C $.$.,.V.x.x.x.x.x.V.V.f.o.p 3 2 4 r 4 4 p o.k.V.l.V.k.k.V.V.h.:.$.%.b j                           ",
"                          j S $.$.i.x.x.x.x.x.x.x.p.P 3 3 3 3 y d d f r 4 I f.V.k.V.V.k.x.x.7.$.$.C j                           ",
"                        N l ! $.$.s.x.x.x.x.x.x.f.P 3 3 3 3 3 t d d d d s 4 I k.V.k.k.V.x.x.i.$.$.S j                           ",
"                        V h @.$.=.j.V.V.x.x.x.V.' 3 3 3 3 3 3 4 t d d d d a 4 +.V.V.k.k.x.x.a.&.$.Q h k                         ",
"                        V k @.$.-.j.V.l.x.x.x.0.u 2 3 3 3 3 3 3 3 r d d d d r p f.V.k.V.x.x.s.&.$.Q h l                         ",
"                        D k #.$.-.g.l.V.x.x.x._ = 3 3 3 3 3 3 3 3 3 4 s d d s 4 5.m.x.x.x.x.s.&.$.! l h                         ",
"                        F l #.$.-.f.V.l.x.x.h.J = 3 3 3 3 3 3 3 3 3 3 4 t s r 3 ' B.x.x.x.x.s.$.;.Q l l                         ",
"                      Y.} h ! $.;.s.V.l.V.l.r.i & 3 3 3 3 3 3 3 3 3 3 3 3 3 3 2 U x.x.x.V.V.i.$.$.W l                           ",
"                      E.Z.h Q $.$.u.B.l.l.V.e.u % ; 3 3 3 3 3 3 3 3 3 3 3 3 3 ; U x.x.x.z.V.7.$.$.A g                           ",
"                        D.j A $.$.,.B.l.b.b.e.J % = 3 3 3 3 3 3 3 3 3 3 3 3 4 ; ' V.x.x.V.z.>.$.$.m g                           ",
"                        K.k b %.$.=.j.B.b.b.t.^ % % ; 3 3 3 3 3 3 3 3 3 3 3 ; 4 5.B.x.x.V.a.$.$.@.v l                           ",
"                        Y.F h ! $.$.w.x.b.b.d.<.: % & ; 3 3 3 ; 3 3 3 3 3 3 ; p f.V.V.l.l.,.$.$.E h k                           ",
"                        R.S.h C $.$.=.s.b.b.z.4.L % % & ; 3 3 4 3 3 3 3 3 3 4 +.V.V.z.V.i.&.$.%.m g                             ",
"                        E.I.B h ! $.$.>.z.x.x.t.2.i % % % = - ; 3 3 3 3 2 - I h.V.x.x.j.-.$.$.W l j                             ",
"                          R.S.j m %.$.$.q.x.x.z.y.1.i % % % % % = = - % = K f.x.z.V.h.,.$.$.#.b h                               ",
"                          E.U.F j S $.$.$.w.V.V.h.y.2.^ q * # # # % * q _ j.x.V.x.z.,.$.$.$.C j k                               ",
"                            E.L.x k Q $.$.$.,.j.x.k.r.3.1./ L J J L [ 0.x.x.x.B.s.>.$.$.$.S l j                                 ",
"                            E.T.D.k z Q $.$.$.:.a.z.N.h.d.e.e.y.4.d.z.x.x.b.z.u.-.$.$.$.S k j                                   ",
"                              T.Y.A.k k W $.$.$.&.,.a.z.x.b.x.x.v.B.B.z.j.i.:.&.$.$.$.S l j                                     ",
"                                T.Y.A.k l A #.$.$.$.$.-.,.u.a.a.a.i.w.,.=.$.$.$.$.@.C l j                                       ",
"                                  T.Y.G.N h b Q %.$.$.$.$.$.$.&.&.$.$.$.$.$.$.#.E v h k                                         ",
"                                    T.T.K. .l h m E #.$.$.$.$.$.$.$.$.$.$.#.T b j k x                                           ",
"                                      T.E.U.G.F j g z M S Q ! ~ ~ ! W S m k j k D                                               ",
"                                          Y.R.U.H...B k g h l k h h h g k V ..G.                                                ",
"                                            E.E.T.Y.P.J.S.Z. .F {  .Z.D.L.I.                                                    ",
"                                                  R.E.E.E.Y.Y.Y.Y.R.E.                                                          ",
"                                                                                                                                ",
"                                                                                                                                ",
"                                                                                                                                "
};
