/* XPM */
static char *result[] = {
/* columns rows colors chars-per-pixel */
"32 32 55 1 ",
"  c #3B7E45",
". c #3D8345",
"X c #3E8E47",
"o c #3E8548",
"O c #3E8C48",
"+ c #428D46",
"@ c #408749",
"# c #428D4B",
"$ c #449146",
"% c #45924C",
"& c #49964D",
"* c #4C9A4E",
"= c #509E4E",
"- c #448F51",
"; c #469251",
": c #499752",
"> c #4C9B53",
", c #4D9E5A",
"< c #539E52",
"1 c #55A24E",
"2 c #5BA64F",
"3 c #4EA25A",
"4 c #56A353",
"5 c #5AA353",
"6 c #5FAA56",
"7 c #5CA45A",
"8 c #5EAB5A",
"9 c #64AC54",
"0 c #66AB5C",
"q c #6AAC5E",
"w c #6DB357",
"e c #6BB45B",
"r c #6CBA5C",
"t c #74B15E",
"y c #67AC61",
"u c #6AAC62",
"i c #6AB660",
"p c #6CBA63",
"a c #76B161",
"s c #7BB565",
"d c #7CBA66",
"f c #7CB669",
"g c #77BA6A",
"h c #7DB96B",
"j c #87BC68",
"k c #89BD6A",
"l c #92C66E",
"z c #9BC36F",
"x c #95C573",
"c c #9AC573",
"v c #95CA77",
"b c #99C974",
"n c #9DC378",
"m c #96CB79",
"M c #9BCB7A",
/* pixels */
"nf%%%%%%@<vfO#;%;#..;%%%%%%%$$#%",
"cs+%%%%%#5xkq7%%%#@#%%%#O#;%;&4<",
"Md+%&%%&%4xcnd%$%;;%%%;O .%;$*r8",
"u7$%%%-%$>yacs%$%%%;%%%%@#%%%*e8",
"X%%&++%%&%O<vg%$%%%%%%%%%%%%%>ew",
";%%&>:%%$##:q7%%%:4<%%%%%%%&%%42",
"#%$:4,%%%%%%%%&$%>r9%%%%%%%%%;%*",
"07;:33>:%%%%%%%%%*w91*%%%%@#&%$&",
"Mj#:333,;%%%%%%;%>ewr6&$%O..%$#;",
"q7%;:333>:%%%%O@%&42w94>%-@#%%%%",
"$#;%&&3333%%%X.o%%+*eep8+$;;;%%%",
";--%%%>>::%%;#o#$&;:4444$&%;#%$:",
"$%%+;%$%X%%%%%%%&$;-$$$$%%%%%%+=",
"%&4>;;&%%%%%%%;%$%;-@#;;%%@@%>0t",
"-:t9+#%%%%%%%;;%%%;# .#&$# o#<xc",
"->w94<;;;%%%XO%%%%##@#%%%%@##<zk",
"$*rwr6%%;%%#.o%%#%%;%%%%%;%%X4mh",
";&12e641&%;%oX%%%%%%%%$%%%%&%:u7",
";&+*eer8+%;;%%%%%%%%%%%;;%$&%$+#",
"$%%%442>%%%%%$%%%%::$%%###%%%%%%",
"+$;;++%%%%$%%;%%%>3>X;%O @%$%%;%",
"%%%;&;;;O#%%%%%%>,33;%;#@#%%%%%%",
"%%%%%#%# O;%%%%&333>;%%%%%X$$-%%",
";%#;%;$%.#%%%%>333>;O#&%$*u7;%%&",
"#%;;++%%%%&%%:333,;#.@%%#5mhX#%&",
"%%#<q7%;;#$%%;>:>:%#@@%%#5ljq7$%",
"%%+<mf+%;##%%%%%-%%;+%%;#5bcMh%%",
"%%%<xju7$%%%@#%%%%%%;%#%#>0acs$%",
"%-;<bcnh+&%# @%$%%%%%%&%%#O1nd&$",
"%%#:0azf$$%%@@%:;;4>+%&%%%#,q7&$",
"%%%%X<vg+%;%$%%$#*r6%%%%%%;%X%%&",
"%%;%$<u7%%;%%%$&14e6:+#@%%%%%%%$"
};
