/* XPM */
static char *result[] = {
/* columns rows colors chars-per-pixel */
"64 64 163 2 ",
"   c #050404",
".  c #080706",
"X  c #090807",
"o  c #0C0B0A",
"O  c #110E0D",
"+  c #13110F",
"@  c #0F1010",
"#  c #151312",
"$  c #191613",
"%  c #1D1916",
"&  c #1C1B1B",
"*  c #211C16",
"=  c #221D1A",
"-  c #25211D",
";  c #29231E",
":  c #232322",
">  c #2B2621",
",  c #2D2925",
"<  c #2B2A2A",
"1  c #322B25",
"2  c #352E2B",
"3  c #373227",
"4  c #36332D",
"5  c #3C352B",
"6  c #3F382E",
"7  c #3B2F31",
"8  c #343434",
"9  c #3B3133",
"0  c #3C3A35",
"q  c #3A3A3A",
"w  c #641D28",
"e  c #7B1F2D",
"r  c #443D2E",
"t  c #433C33",
"y  c #74202C",
"u  c #605815",
"i  c #6F661E",
"p  c #7A6F1A",
"a  c #4D4433",
"s  c #45423D",
"d  c #554B3A",
"f  c #61553F",
"g  c #7C6F28",
"h  c #565554",
"j  c #5D5B5A",
"k  c #695C45",
"l  c #6E5F48",
"z  c #655C4B",
"x  c #6E6149",
"c  c #75664D",
"v  c #7C6B51",
"b  c #70695F",
"n  c #776C56",
"m  c #6F6F6F",
"M  c #7F7F7E",
"N  c #821E2E",
"B  c #8B1F31",
"V  c #8D3039",
"C  c #9C343E",
"Z  c #A72237",
"A  c #B9233B",
"S  c #A8333F",
"D  c #C0253F",
"F  c #897B1A",
"G  c #86791D",
"H  c #847921",
"J  c #847834",
"K  c #806F54",
"L  c #847256",
"P  c #8C795C",
"I  c #85775B",
"U  c #937E5F",
"Y  c #877A61",
"T  c #92841D",
"R  c #9C8A1C",
"E  c #9C8B19",
"W  c #A7971A",
"Q  c #BEA71C",
"!  c #B6A01B",
"~  c #99853C",
"^  c #C2A91C",
"/  c #CDB41E",
"(  c #D2B71C",
")  c #D4B91E",
"_  c #D9BE1E",
"`  c #D1B620",
"'  c #DEC11E",
"]  c #E3C31E",
"[  c #E8C71F",
"{  c #EDCB1F",
"}  c #F2CF1F",
"|  c #F2D01E",
" . c #E8C820",
".. c #F7D320",
"X. c #FED720",
"o. c #FFD820",
"O. c #93805F",
"+. c #A69050",
"@. c #9A8564",
"#. c #9A896A",
"$. c #948B76",
"%. c #A18A67",
"&. c #A58D69",
"*. c #A88E6B",
"=. c #AB926D",
"-. c #A3906F",
";. c #AE9371",
":. c #A6957C",
">. c #AF9979",
",. c #B59A73",
"<. c #BA9E75",
"1. c #B59D7C",
"2. c #B19574",
"3. c #BDA177",
"4. c #BDA27A",
"5. c #C4A67D",
"6. c #C7A87D",
"7. c #CBAA7F",
"8. c #838180",
"9. c #938F86",
"0. c #9C9B99",
"q. c #AD9D85",
"w. c #B39F84",
"e. c #BBA381",
"r. c #BEA788",
"t. c #BAA68A",
"y. c #A9A296",
"u. c #BAAB94",
"i. c #BAAE9D",
"p. c #B3A899",
"a. c #A9A7A4",
"s. c #BAB0A3",
"d. c #BAB5AD",
"f. c #BFB8AF",
"g. c #B6B1A8",
"h. c #CDAD82",
"j. c #C3AA89",
"k. c #C0A784",
"l. c #D0AF83",
"z. c #D4B285",
"x. c #DBB688",
"c. c #DEB889",
"v. c #E3BC8C",
"b. c #C2BAAE",
"n. c #C2BDB5",
"m. c #E7C08F",
"M. c #E9C08F",
"N. c #ECC291",
"B. c #C9C4BE",
"V. c #C4C4C3",
"C. c #CECDCB",
"Z. c #C9C7C3",
"A. c #D4D3D2",
"S. c #DCDCDC",
"D. c #D9D8D6",
"F. c #E3E3E3",
"G. c #E7E8E8",
"H. c #ECECEC",
"J. c #F5F5F5",
"K. c #F7F7F8",
"L. c #F7F8F8",
"P. c #F8F8F8",
"I. c None",
/* pixels */
"I.I.I.I.I.I.I.I.I.I.I.I.I.I.I.I.I.I.I.I.I.I.I.I.I.I.I.I.I.I.I.I.I.I.I.I.I.I.I.I.I.I.I.I.I.I.I.I.I.I.I.I.I.I.I.I.I.I.I.I.I.I.I.I.",
"I.I.I.I.I.I.I.I.I.I.I.I.I.I.I.I.I.I.I.I.I.I.I.I.I.I.I.I.I.I.I.I.I.I.I.I.I.I.I.I.I.I.I.I.I.I.I.I.I.I.I.I.I.I.I.I.I.I.I.I.I.I.I.I.",
"I.I.I.I.I.I.I.I.I.I.I.I.I.I.I.I.I.I.I.I.I.I.I.I.$ : < & I.& O O # I.I.: : I.I.I.I.I.I.I.I.I.I.I.I.I.I.I.I.I.I.I.I.I.I.I.I.I.I.I.",
"I.I.I.I.I.I.I.I.I.I.I.I.I.I.I.I.I.I.I.I.I.I.I.& : 1 2 & o . # $ # & & & $ # # I.I.I.I.I.I.I.I.I.I.I.I.I.I.I.I.I.I.I.I.I.I.I.I.I.",
"I.I.I.I.I.I.I.I.I.I.I.I.I.I.I.I.I.I.I.I.I.I.I.= - > = O o % 1 = @ o & $ $ I.I.& I.I.I.I.I.I.I.I.I.I.I.I.I.I.I.I.I.I.I.I.I.I.I.I.",
"I.I.I.I.I.I.I.I.I.I.I.I.I.I.I.I.I.I.I.I.I.I.& + % # o $ # $ % o X X o   o # : @ & I.I.I.I.I.I.I.I.I.I.I.I.I.I.I.I.I.I.I.I.I.I.I.",
"I.I.I.I.I.I.I.I.I.I.I.I.I.I.I.I.I.I.I.I.I.o o o o O % 1 o o . o O O $ * $ 1 > $ @ I.I.I.I.I.I.I.I.I.I.I.I.I.I.I.I.I.I.I.I.I.I.I.",
"I.I.I.I.I.I.I.I.I.I.I.I.I.I.I.I.I.I.I.# $ o +   . + $ % O O O o $ # $ 1 $ 1 ; #   o o I.I.I.I.I.I.I.I.I.I.I.I.I.I.I.I.I.I.I.I.I.",
"I.I.I.I.I.I.I.I.I.I.I.I.I.I.I.I.I.I.I.$ $ # = o X O . . $ = 1 $ = $ = 1 - > ;     * % . I.I.I.I.I.I.I.I.I.I.I.I.I.I.I.I.I.I.I.I.",
"I.I.I.I.I.I.I.I.I.I.I.I.I.I.I.I.I.# o o o X - ; 1 + O O $ $ ; = # $ $ ; * ; +   o % - o I.I.I.I.I.I.I.I.I.I.I.I.I.I.I.I.I.I.I.I.",
"I.I.I.I.I.I.I.I.I.I.I.I.I.I.I.I.I.I.$ o o o # + = O O $ * $ o o   . . O + $ . o $ o # o o I.I.I.I.I.I.I.I.I.I.I.I.I.I.I.I.I.I.I.",
"I.I.I.I.I.I.I.I.I.I.I.I.I.I.I.I.I.I.= $ & $ o o = $ * O $ > $ > o     O + + .   o o @ @ o I.I.I.I.I.I.I.I.I.I.I.I.I.I.I.I.I.I.I.",
"I.I.I.I.I.I.I.I.I.I.I.I.I.I.I.I.I.O # O O = $ O $ $ X O - * + % o ; - 1 $ . .   o o o . o $ I.I.I.I.I.I.I.I.I.I.I.I.I.I.I.I.I.I.",
"I.I.I.I.I.I.I.I.I.I.I.I.I.I.I.& $   o #   . + . X O $ * 1 - o O 1 k O.L 3 a * . . .     X X I.I.I.I.I.I.I.I.I.I.I.I.I.I.I.I.I.I.",
"I.I.I.I.I.I.I.I.I.I.I.I.I.I.$ & %   O X . O O . $ r r r - 3 s c L x L K %.O.r * # + o % # . # I.I.I.I.I.I.I.I.I.I.I.I.I.I.I.I.I.",
"I.I.I.I.I.I.I.I.I.I.I.I.I.I.$ #       . o O * % a &.2.U L O.<.x.M.7.x x O.<.a ; & $ . $ & o o I.I.I.I.I.I.I.I.I.I.I.I.I.I.I.I.I.",
"I.I.I.I.I.I.I.I.I.I.I.I.I.# & # - o     + + = x ;.m.v.N.N.N.N.N.N.N.x.h.&.<.U ; $ - . . . o o @ I.I.I.I.I.I.I.I.I.I.I.I.I.I.I.I.",
"I.I.I.I.I.I.I.I.I.I.I.I.I.I.# o $ .   o 3 r f 5.z.z.m.N.N.N.N.N.N.v.c.l.c.c.5.d + O o + . O o o I.I.I.I.I.I.I.I.I.I.I.I.I.I.I.I.",
"I.I.I.I.I.I.I.I.I.I.I.I.I.- : . o o   o a P 9.d.n.g.q.z.N.N.N.N.v.w.p.d.f.u.k.v % O $ = o > + o I.I.I.I.I.I.I.I.I.I.I.I.I.I.I.I.",
"I.I.I.I.I.I.I.I.I.I.I.I.I.= - + = # .   z V.J.K.L.J.F.y.z.N.N.v.p.F.J.J.J.J.A.b > * = - o > o & I.I.I.I.I.I.I.I.I.I.I.I.I.I.I.I.",
"I.I.I.I.I.I.I.I.I.I.I.I.I.= $ # . .   = a.P.J.J.J.J.P.F.w.M.N.j.S.J.J.J.J.J.K.V., $ ; $ $ O O , I.I.I.I.I.I.I.I.I.I.I.I.I.I.I.I.",
"I.I.I.I.I.I.I.I.I.I.I.I.I.$ o     o   q G.J.J.F.H.J.J.J.s.c.v.s.J.J.J.D.G.J.J.J.j o = 5 > o $ & I.I.I.I.I.I.I.I.I.I.I.I.I.I.I.I.",
"I.I.I.I.I.I.I.I.I.I.I.I.> 5 + * . o $ j H.J.J.m 0.P.J.L.Z.z.c.b.J.J.H.h a.J.J.K.M o o O . o O @ I.I.I.I.I.I.I.I.I.I.I.I.I.I.I.I.",
"I.I.I.I.I.I.I.I.I.I.I.I.I.> $ ; o $ = h H.J.J.A.S.J.J.J.B.x.v.b.J.J.J.C.F.J.J.K.8.. .     . o $ I.I.I.I.I.I.I.I.I.I.I.I.I.I.I.I.",
"I.I.I.I.I.I.I.I.I.I.I.I.I.# % o O + o < S.J.J.K.K.J.J.J.i.v.v.u.J.J.J.P.J.J.J.J.j O o O . O # & I.I.I.I.I.I.I.I.I.I.I.I.I.I.I.I.",
"I.I.I.I.I.I.I.I.I.I.I.I.I.& t = $ + = = 0.J.J.J.J.L.J.Z.>.<.3.e.V.J.J.J.J.J.P.V.< o O o . O o $ I.I.I.I.I.I.I.I.I.I.I.I.I.I.I.I.",
"I.I.I.I.I.I.I.I.I.I.I.I.I.I.- - O * ; % n f.S.F.F.D.a.#.<.h.h.v.w.d.S.H.H.G.C.$.& .   . $ # # & I.I.I.I.I.I.I.I.I.I.I.I.I.I.I.I.",
"I.I.I.I.I.I.I.I.I.I.I.I.I.I.I.I.@ $ * = 1 L 1.r.r.h.=.7.7.M.N.M.x.h.j.j.u.w.-.r . o X @ & & I.I.I.I.I.I.I.I.I.I.I.I.I.I.I.I.I.I.",
"I.I.I.I.I.I.I.I.I.I.I.I.I.I.I.I.$ $ $ = # z v.N.N.N.h.;.4.4.1.:.3.M.N.N.M.v.*.o   . o $ $ I.I.I.I.I.I.I.I.I.I.I.I.I.I.I.I.I.I.I.",
"I.I.I.I.I.I.I.I.I.I.I.I.I.I.I.I.I.# I.I.$ r h.N.N.N.N.h.:.e.e.w.v.N.N.N.N.N.c o X @ @ I.I.I.I.I.I.I.I.I.I.I.I.I.I.I.I.I.I.I.I.I.",
"I.I.I.I.I.I.I.I.I.I.I.I.I.I.I.I.I.I.I.I.I.I.x z.N.N.N.N.N.N.N.N.N.N.N.N.N.,.4 & & I.I.I.I.I.I.I.I.I.I.I.I.I.I.I.I.I.I.I.I.I.I.I.",
"I.I.I.I.I.I.I.I.I.I.I.I.I.I.I.I.I.I.I.I.I.I.I.I.=.l.M.N.N.N.N.N.N.N.v.7.@.I.I.I.I.I.I.I.I.I.I.I.I.I.I.I.I.I.I.I.I.I.I.I.I.I.I.I.",
"I.I.I.I.I.I.I.I.I.I.I.I.I.I.I.I.I.I.I.I.I.I.I.I.I.I.@.l.N.N.N.N.z.&.K I.I.I.I.I.I.I.I.I.I.I.I.I.I.I.I.I.I.I.I.I.I.I.I.I.I.I.I.I.",
"I.I.I.I.I.I.I.I.I.I.I.I.I.I.I.I.I.I.I.I.I.I.I.I.I.I.I.I.*.v.N.l.c I.I.I.I.I.I.I.I.I.I.I.I.I.I.I.I.I.I.I.I.I.I.I.I.I.I.I.I.I.I.I.",
"I.I.I.I.I.I.I.I.I.I.I.I.I.I.I.I.I.I.I.I.I.I.I.I.I.I.I.I.I.,.N.=.I.I.I.I.I.I.I.I.I.I.I.I.I.I.I.I.I.I.I.I.I.I.I.I.I.I.I.I.I.I.I.I.",
"I.I.I.I.I.I.I.I.I.I.I.I.I.I.I.I.I.I.I.I.I.I.I.I.I.I.I.I.I.#.v.U I.I.I.I.I.I.I.I.I.I.I.I.I.I.I.I.I.I.I.I.I.I.I.I.I.I.I.I.I.I.I.I.",
"I.I.I.I.I.I.I.I.I.I.I.I.I.I.I.I.I.I.I.I.I.I.I.I.I.I.I.I.I.@.c.I.I.I.I.I n d I.I.I.I.I.I.I.I.I.I.I.I.I.I.I.I.I.I.I.I.I.I.I.I.I.I.",
"I.I.I.I.I.I.I.I.I.I.I.I.I.I.I.I.I.I.I.I.I.I.I.I.I.I.I.I.I.*.z.I.I.I.I.I.,.3.z I.I.I.I.I.I.I.I.I.I.I.I.I.I.I.I.I.I.I.I.I.I.I.I.I.",
"I.I.I.I.I.I.I.I.I.I.I.I.I.I.I.I.I.I.I.I.I.I.I.I.I.I.I.I.I.v ,.5 I.I.I.P z.N.&.I.I.I.I.I.I.I.I.I.I.I.I.I.I.I.I.I.I.I.I.I.I.I.I.I.",
"I.I.I.I.I.I.I.I.I.I.I.I.I.I.I.I.I.I.I.I.I.I.I.I.I.I.I.I.I.0 s : I.I.I.&.v.z.@.I.I.I.I.I.I.I.I.I.I.I.I.I.I.I.I.I.I.I.I.I.I.I.I.I.",
"I.I.I.I.I.I.I.I.I.I.I.I.I.I.I.I.I.I.I.I.I.I.I.I.I.I.I.@.P 8 q 0 I.I.I.I.l.h.I.I.I.I.I.I.I.I.I.I.I.I.I.I.I.I.I.I.I.I.I.I.I.I.I.I.",
"I.I.I.I.I.I.I.I.I.I.I.I.I.I.I.I.I.I.I.I.I.I.I.I.I.I.@.3.t 8 q q c I.I.l c.z.I.I.I.I.I.I.I.I.I.I.I.I.I.I.I.I.I.I.I.I.I.I.I.I.I.I.",
"I.I.I.I.I.I.I.I.I.I.I.I.I.I.I.I.I.I.I.I.I.I.I.I.I.I.7.I.: q q q L 2.#.6.N.%.I.I.I.I.I.I.I.I.I.I.I.I.I.I.I.I.I.I.I.I.I.I.I.I.I.I.",
"I.I.I.I.I.I.I.I.I.I.I.I.I.I.I.I.I.I.I.I.I.I.I.I.I.=.3.I.< q q q 4 &.l.l.%.I.I.I.I.I.I.I.I.I.I.I.I.I.I.I.I.I.I.I.I.I.I.I.I.I.I.I.",
"I.I.I.I.I.I.I.I.I.I.I.I.I.I.I.I.I.I.I.I.I.I.I.I.I.=.x.t 8 q q q 4 I.I.I.I.I.I.I.I.I.I.I.I.I.I.I.I.I.I.I.I.I.I.I.I.I.I.I.I.I.I.I.",
"I.I.I.I.I.I.I.I.I.I.I.I.I.I.I.I.I.I.I.I.I.I.I.I.I.L @.0 q q q q q < I.I.I.I.I.I.I.I.I.I.I.I.I.I.I.I.I.I.I.I.I.I.I.I.I.I.I.I.I.I.",
"I.I.I.I.I.I.I.I.I.I.I.I.I.I.I.I.I.I.I.I.I.I.I.I.I.I.: 8 9 9 8 7 7 < I.I.I.I.I.I.I.I.I.I.I.I.I.I.I.I.I.I.I.I.I.I.I.I.I.I.I.I.I.I.",
"I.I.I.I.I.I.I.I.I.I.I.I.I.I.I.I.I.I.I.I.I.I.I.I.I.I.I.B D N I.Z A w I.I.I.I.I.I.I.I.I.I.I.I.I.I.I.I.I.I.I.I.I.I.I.I.I.I.I.I.I.I.",
"I.I.I.I.I.I.I.I.I.I.I.I.I.I.I.I.I.I.I.I.I.I.I.I.I.I.I.e S y I.V C I.I.I.I.I.I.I.I.I.I.I.I.I.I.I.I.I.I.I.I.I.I.I.I.I.I.I.I.I.I.I.",
"I.I.I.I.I.I.I.I.I.I.I.I.I.I.I.I.I.I.I.I.I.I.I.I.I.I.I.I.=.I.I.@.@.I.I.I.I.I.I.I.I.I.I.I.I.I.I.I.I.I.I.I.I.I.I.I.I.I.I.I.I.I.I.I.",
"I.I.I.I.I.I.I.I.I.I.I.I.I.I.I.I.I.I.I.I.I.I.I.I.I.I.I.I.h.I.I.2.2.I.I.I.I.I.I.I.I.I.I.I.I.I.I.I.I.I.I.I.I.I.I.I.I.I.I.I.I.I.I.I.",
"I.I.I.I.I.I.I.I.I.I.I.I.I.I.I.I.I.I.I.I.I.I.I.I.I.I.I.g +.J u ~ ~ p I.I.I.I.I.I.I.I.I.I.I.I.I.I.I.I.I.I.I.I.I.I.I.I.I.I.I.I.I.I.",
"I.I.I.I.I.I.I.I.I.I.I.I.I.I.I.I.I.I.I.I.I.I.I.I.I.I.T [ { ) R } } ) I.I.I.I.I.I.I.I.I.I.I.I.I.I.I.I.I.I.I.I.I.I.I.I.I.I.I.I.I.I.",
"I.I.I.I.I.I.I.I.I.I.I.I.I.I.I.I.I.I.I.I.I.I.I.I.I.I.G } | _ T X.| ) I.I.I.I.I.I.I.I.I.I.I.I.I.I.I.I.I.I.I.I.I.I.I.I.I.I.I.I.I.I.",
"I.I.I.I.I.I.I.I.I.I.I.I.I.I.I.I.I.I.I.I.I.I.I.I.I.I.I.[ | ) G | o.^ I.I.I.I.I.I.I.I.I.I.I.I.I.I.I.I.I.I.I.I.I.I.I.I.I.I.I.I.I.I.",
"I.I.I.I.I.I.I.I.I.I.I.I.I.I.I.I.I.I.I.I.I.I.I.I.I.I.I.] o.' H  .o.! I.I.I.I.I.I.I.I.I.I.I.I.I.I.I.I.I.I.I.I.I.I.I.I.I.I.I.I.I.I.",
"I.I.I.I.I.I.I.I.I.I.I.I.I.I.I.I.I.I.I.I.I.I.I.I.I.I.I.) o.` I.{ o.R I.I.I.I.I.I.I.I.I.I.I.I.I.I.I.I.I.I.I.I.I.I.I.I.I.I.I.I.I.I.",
"I.I.I.I.I.I.I.I.I.I.I.I.I.I.I.I.I.I.I.I.I.I.I.I.I.I.T W  ./ I. .( E F I.I.I.I.I.I.I.I.I.I.I.I.I.I.I.I.I.I.I.I.I.I.I.I.I.I.I.I.I.",
"I.I.I.I.I.I.I.I.I.I.I.I.I.I.I.I.I.I.I.I.I.I.I.I.I.R }  .' / I.' ' | ' I.I.I.I.I.I.I.I.I.I.I.I.I.I.I.I.I.I.I.I.I.I.I.I.I.I.I.I.I.",
"I.I.I.I.I.I.I.I.I.I.I.I.I.I.I.I.I.I.I.I.I.I.I.I.I.F '  .' W i Q ] ] ^ I.I.I.I.I.I.I.I.I.I.I.I.I.I.I.I.I.I.I.I.I.I.I.I.I.I.I.I.I.",
"I.I.I.I.I.I.I.I.I.I.I.I.I.I.I.I.I.I.I.I.I.I.I.I.I.I.I.I.I.I.I.I.I.I.I.I.I.I.I.I.I.I.I.I.I.I.I.I.I.I.I.I.I.I.I.I.I.I.I.I.I.I.I.I.",
"I.I.I.I.I.I.I.I.I.I.I.I.I.I.I.I.I.I.I.I.I.I.I.I.I.I.I.I.I.I.I.I.I.I.I.I.I.I.I.I.I.I.I.I.I.I.I.I.I.I.I.I.I.I.I.I.I.I.I.I.I.I.I.I.",
"I.I.I.I.I.I.I.I.I.I.I.I.I.I.I.I.I.I.I.I.I.I.I.I.I.I.I.I.I.I.I.I.I.I.I.I.I.I.I.I.I.I.I.I.I.I.I.I.I.I.I.I.I.I.I.I.I.I.I.I.I.I.I.I.",
"I.I.I.I.I.I.I.I.I.I.I.I.I.I.I.I.I.I.I.I.I.I.I.I.I.I.I.I.I.I.I.I.I.I.I.I.I.I.I.I.I.I.I.I.I.I.I.I.I.I.I.I.I.I.I.I.I.I.I.I.I.I.I.I."
};
