/* XPM */
static char *_fbd95f5fab04f34a8307781e266f12cHbo1UGv21Gm8HWwJ[] = {
/* columns rows colors chars-per-pixel */
"32 32 235 2 ",
"   c None",
".  c #060807",
"X  c #060908",
"o  c #070909",
"O  c #05090A",
"+  c #060A0A",
"@  c #070A0A",
"#  c #070C0A",
"$  c #080A09",
"%  c #090A0A",
"&  c #090B0A",
"*  c #0A0C0B",
"=  c #0A0D0B",
"-  c #0C0B0C",
";  c #0A0C0C",
":  c #0B0C0C",
">  c #0B0D0C",
",  c #0B0D0D",
"<  c #0C0E0D",
"1  c #0C0F0D",
"2  c #0D0F0D",
"3  c #0D0E0E",
"4  c #0C0F0E",
"5  c #0D0F0E",
"6  c #0D0E0F",
"7  c #0E0F0E",
"8  c #0D100F",
"9  c #0E100F",
"0  c #0F100F",
"q  c #0D0F11",
"w  c #0F1110",
"e  c #0E1212",
"r  c #101210",
"t  c #101211",
"y  c #101212",
"u  c #111212",
"i  c #111312",
"p  c #121213",
"a  c #131512",
"s  c #121413",
"d  c #111214",
"f  c #131414",
"g  c #131514",
"h  c #111615",
"j  c #141515",
"k  c #141615",
"l  c #151715",
"z  c #151716",
"x  c #151617",
"c  c #161716",
"v  c #171817",
"b  c #111A1B",
"n  c #151818",
"m  c #161818",
"M  c #171918",
"N  c #16191A",
"B  c #14191C",
"V  c #171C1C",
"C  c #161D1C",
"Z  c #181918",
"A  c #181A19",
"S  c #181B1B",
"D  c #1A1C1B",
"F  c #191E1B",
"G  c #181B1E",
"H  c #1B1D1C",
"J  c #1C1D1D",
"K  c #1C1E1D",
"L  c #1D1F1D",
"P  c #1C1E1E",
"I  c #1E1F1F",
"U  c #25251F",
"Y  c #161B20",
"T  c #321922",
"R  c #1E2120",
"E  c #1F2120",
"W  c #212122",
"Q  c #232621",
"!  c #212425",
"~  c #282725",
"^  c #2D2926",
"/  c #28282A",
"(  c #2A2B2A",
")  c #2B2B2C",
"_  c #2C2E2C",
"`  c #34342E",
"'  c #39342D",
"]  c #2F3031",
"[  c #323430",
"{  c #373632",
"}  c #313334",
"|  c #323536",
" . c #393A39",
".. c #3D3C39",
"X. c #3B3D3D",
"o. c #431F28",
"O. c #511522",
"+. c #521328",
"@. c #544E3E",
"#. c #3F4041",
"$. c #444445",
"%. c #494B41",
"&. c #575241",
"*. c #5B5346",
"=. c #5E5749",
"-. c #595C58",
";. c #625E57",
":. c #6F6658",
">. c #7B6E51",
",. c #786D58",
"<. c #78797A",
"1. c #97484B",
"2. c #984A52",
"3. c #826E57",
"4. c #8E7F5B",
"5. c #8C7E66",
"6. c #B4AE20",
"7. c #B2AB28",
"8. c #AFAD34",
"9. c #B2B030",
"0. c #D0BE1A",
"q. c #C2B425",
"w. c #C6BB25",
"e. c #C8BA29",
"r. c #D6C71D",
"t. c #DACE1A",
"y. c #DBCC1E",
"u. c #F0DA0F",
"i. c #ECD714",
"p. c #E2D018",
"a. c #CEC722",
"s. c #CDC02E",
"d. c #D0C627",
"f. c #D0C62A",
"g. c #A1965F",
"h. c #948260",
"j. c #8F8471",
"k. c #86847A",
"l. c #928B7B",
"z. c #9E9273",
"x. c #A08A69",
"c. c #A38A6A",
"v. c #A79A62",
"b. c #A5916B",
"n. c #A29076",
"m. c #AF9675",
"M. c #B99E77",
"N. c #B59F7D",
"B. c #B8A271",
"V. c #BBA079",
"C. c #BCA07C",
"Z. c #BCA37C",
"A. c #C5A976",
"S. c #C5A97B",
"D. c #C5A87F",
"F. c #C6AD7E",
"G. c #CCAB7F",
"H. c #D0AE7A",
"J. c #D0B17E",
"K. c #D5B37F",
"L. c #919392",
"P. c #AB9C82",
"I. c #BCA781",
"U. c #B8A689",
"Y. c #B6B8B4",
"T. c #C4AB80",
"R. c #C7AC81",
"E. c #C5AA85",
"W. c #CAAB82",
"Q. c #CDAE80",
"!. c #CCB089",
"~. c #D6B385",
"^. c #D4B587",
"/. c #DAB682",
"(. c #D8B587",
"). c #D6B38C",
"_. c #D8B488",
"`. c #D8B689",
"'. c #CEBA9A",
"]. c #CAB89D",
"[. c #CEB99D",
"{. c #E1B884",
"}. c #E2BA84",
"|. c #E0BC86",
" X c #E0BE86",
".X c #E6BF85",
"XX c #ECBF82",
"oX c #EDBF83",
"OX c #EABF86",
"+X c #EDBF84",
"@X c #EDBF88",
"#X c #C5BBA4",
"$X c #CFBDA5",
"%X c #D1BFAE",
"&X c #ECC082",
"*X c #E8C186",
"=X c #E9C186",
"-X c #EFC287",
";X c #EBC189",
":X c #F2C386",
">X c #D2C0A9",
",X c #D4C6AD",
"<X c #C7C2B7",
"1X c #CEC4B7",
"2X c #C0C2C3",
"3X c #C4C5C7",
"4X c #CDCED0",
"5X c #D6D7D7",
"6X c #DCD8D2",
"7X c #DDDBD3",
"8X c #D4D8D9",
"9X c #DDDDD8",
"0X c #E0DFD4",
"qX c #E4E5DF",
"wX c #DFE0E2",
"eX c #E3E6E4",
"rX c #E4E8E6",
"tX c #E7E8E8",
"yX c #ECECEB",
"uX c #E9EBEC",
"iX c #EBECEF",
"pX c #F1F3F5",
"aX c #F3F3F5",
"sX c #F2F4F6",
"dX c #F6F8F7",
"fX c #F0F6F8",
"gX c #F4F7F8",
"hX c #F5F6F9",
"jX c #F6FAFB",
"kX c #F9FAFC",
"lX c #F8FBFD",
"zX c #FAFBFC",
"xX c #F8FCFD",
"cX c #FBFCFE",
"vX c #FDFFFF",
/* pixels */
"                                                                ",
"                                                                ",
"                          J E c c J } | ]                       ",
"                        v < e > < * < i g D                     ",
"                    I i * * < < 0 , 8 a a 9 e                   ",
"                  E s 0 i < * r e 0 8 9 a 8 0 m                 ",
"                  v , 8 < 0 , e 0 8 8 0 . . * D                 ",
"                D 8 * * # g K m D ` *.@.{ e * e v               ",
"              E < $ $ - U >.h.3.x.S.x.4.5.~ q ; 0 E             ",
"              D < + Z ..j.!./.:X:X@X_.E.I.*., < , g             ",
"              g < + [ Y.rXeX<X(.=X'.6XtX0Xk.p i e s             ",
"            c < $ + <.cXwXsXsX]._.6XhX8XjX5X) i e v             ",
"            J i < < L.vX4XuXzX%X).qXsX3XhXuX .o $ g             ",
"              Z < * -.yXkXdX9XU.R.1XaXvXkX2XJ $ q W             ",
"                p c Q l.%X$XP.Z.K.R.[.,X#X;.+ c #.$.            ",
"                  ( X.,.}.XXH.M.M.W.+XXXG.' e (                 ",
"                        C./..X=X&X;X|.~.                        ",
"                              |.=XQ.                            ",
"                                ^.                              ",
"                                R.      z.                      ",
"                                @.    N.J.                      ",
"                              %.B _   B.A.                      ",
"                            n.G Y ^ m.F.b.                      ",
"                            :.b C C                             ",
"                            o.+.T O.                            ",
"                              1.  2.                            ",
"                              g.  v.                            ",
"                            q.r.7.y.8.                          ",
"                            0.i.w.u.                            ",
"                            6.p.e.t.                            ",
"                            d.a.9.f.s.                          ",
"                                                                "
};
