/* XPM */
static char *_03a1f513a544c19ae546a209016fde1AgRwEcpSqKRCf3UC[] = {
/* columns rows colors chars-per-pixel */
"23 32 126 2 ",
"   c None",
".  c #7B6A70",
"X  c #9D9C7F",
"o  c #A5A47D",
"O  c #987987",
"+  c #70868B",
"@  c #869587",
"#  c #949589",
"$  c #989A8C",
"%  c #869192",
"&  c #9B9791",
"*  c #9F9698",
"=  c #95999C",
"-  c #9C9C99",
";  c #B48D9F",
":  c #AD909C",
">  c #98A08C",
",  c #A4A385",
"<  c #B2B187",
"1  c #B5B38C",
"2  c #BCBC8F",
"3  c #A4A29B",
"4  c #AAA59F",
"5  c #A5AD9B",
"6  c #ACAD9B",
"7  c #A9B095",
"8  c #AFB699",
"9  c #BBBB92",
"0  c #B8B699",
"q  c #BE95A7",
"w  c #8FA2A5",
"e  c #92A4A0",
"r  c #9DA2A2",
"t  c #93AAAE",
"y  c #8EAEB5",
"u  c #92ADB3",
"i  c #94B3B9",
"p  c #9DB5BA",
"a  c #ABA6A0",
"s  c #ADADA6",
"d  c #B0ACA5",
"f  c #B3A3A8",
"g  c #BCA5AE",
"h  c #AEB4AE",
"j  c #B8B4A5",
"k  c #B9B9A7",
"l  c #B5B1AA",
"z  c #B3BFAB",
"x  c #BEBAAF",
"c  c #A6B7B0",
"v  c #BCB7B0",
"b  c #B6B8B6",
"n  c #BFBAB2",
"m  c #CA9EB2",
"M  c #C0BDA2",
"N  c #CFA9B9",
"B  c #C4BFB8",
"V  c #BCC2A5",
"C  c #BDC8A7",
"Z  c #B4C3A9",
"A  c #BECBAD",
"S  c #A9C3B7",
"D  c #B5C7B0",
"F  c #BFCBB5",
"G  c #C4C395",
"H  c #C3C39D",
"J  c #C8C79A",
"K  c #CBCA9B",
"L  c #C5C3A1",
"P  c #C9C7A4",
"I  c #CCCAA5",
"U  c #C7C4AF",
"Y  c #CAC7AA",
"T  c #C6CBA8",
"R  c #CBCEAB",
"E  c #D0CFA5",
"W  c #D4D4A3",
"Q  c #D8D7A4",
"!  c #DAD9A5",
"~  c #D3D4A9",
"^  c #D7D9AA",
"/  c #DCDBA9",
"(  c #C9C5B3",
")  c #C1CCB2",
"_  c #C6C1B9",
"`  c #CBC6BC",
"'  c #CECCBA",
"]  c #D2CDBD",
"[  c #E5E4AE",
"{  c #E8E6AF",
"}  c #EBEAB3",
"|  c #99BEC5",
" . c #A6BEC2",
".. c #DEAEC3",
"X. c #9FC2C2",
"o. c #9CC3CB",
"O. c #A9C0C0",
"+. c #A1C2C9",
"@. c #ACC6CA",
"#. c #AFC9CE",
"$. c #BACEC7",
"%. c #B5CECF",
"&. c #ADCBD2",
"*. c #B4CED4",
"=. c #B6D1D6",
"-. c #BCD5D6",
";. c #B6D3D9",
":. c #BAD5DA",
">. c #BED9DC",
",. c #BFDAE0",
"<. c #CFCAC2",
"1. c #CDCECD",
"2. c #D3CDC4",
"3. c #D6D1C8",
"4. c #DAD5CC",
"5. c #C0DBDF",
"6. c #DED8D0",
"7. c #E2DCD4",
"8. c #E6E0D7",
"9. c #E7E1D8",
"0. c #E8E2DA",
"q. c #C1DEE3",
"w. c #C4E1E6",
"e. c #C6E3E9",
"r. c #C9E6EC",
"t. c #CAE8ED",
/* pixels */
"                                              ",
"                  $ _ B n                     ",
"          4 <.7.4.3.3.7.7.B                   ",
"        a 7.9.0.8.] L L M ] <.                ",
"        ` 0.7.( R ! K < o < 0 x               ",
"        3.0.7.Y { Q 1 J Q Q W 0 3             ",
"        7.0.0.] Q 9 0 H { } / X               ",
"      4 7.0.0.( Q R 1.r ~ } ~ b =             ",
"      v 8.8.0.6.H I ' 6 K / 9 k #             ",
"      l 8.0.0.6.P } W 2 / K W < G 1           ",
"      ` 0.0.0.6.P } } } } Q 2 ! } / j         ",
"      2.0.0.0.2.E } } } } { } } } { U d       ",
"      d 7.0.0.6.I } } } } } } } } ^ (         ",
"        4.3.` Y / W ! Q / } } [ K ,           ",
"          % e V ^ ! ! ! { } } G               ",
"          =.&.| +.S D A C 8 C @               ",
"        p r.e.;.+.o.o.| i + y u               ",
"        ;.q.t.t.r.,.;.:.q.t u e.>.            ",
"        ,.*.t.t.t.t.t.r.t.*.p q.t.q. .        ",
"      &.,.c q.:.,.r.r.r.t.t.e.r.t.t.,.        ",
"      :.q.Z R c q.r.r.r.r.r.e.r.t.t.,.        ",
"      q.q.R [ $.t.r.r.r.r.r.r.r.r.r.r. .      ",
"      e.r.F ~ :.r.r.r.r.r.r.e.r.r.r.r.;.      ",
"      e.e.) ~ :.r.r.r.r.r.r.t.r.r.r.t.,.      ",
"    p r.>.7 V 5.t.r.r.r.r.r.r.r.e.t.t.q.      ",
"    p w.w.%.-.r.t.t.r.r.r.r.t.t.t.t.t.q.t     ",
"      p @.*.q.>.q.e.e.q.q.q.5.q.:.@.@.        ",
"              > T Z t   w 5 8                 ",
"              $ V 8       s 3 .               ",
"              - c : O     f g m q             ",
"              : g N ..m                       ",
"                  ; ;                         "
};
