/* XPM */
static char *_8f8454cbfe14c219ce787b15381797cSnGtpkOMx1PrX1kw[] = {
/* columns rows colors chars-per-pixel */
"45 64 186 2 ",
"   c None",
".  c #4A493C",
"X  c #4C3C43",
"o  c #4F4F54",
"O  c #6A545E",
"+  c #624D56",
"@  c #646659",
"#  c #707059",
"$  c #656866",
"%  c #746E6F",
"&  c #6E716D",
"*  c #787766",
"=  c #68787B",
"-  c #797A74",
";  c #7E6C73",
":  c #8B6D7A",
">  c #846774",
",  c #817E78",
"<  c #7C867B",
"1  c #84836B",
"2  c #8E8E6C",
"3  c #858469",
"4  c #88867B",
"5  c #908E7B",
"6  c #949473",
"7  c #9C9B76",
"8  c #9C9C79",
"9  c #A4A37D",
"0  c #6C7E82",
"q  c #9A7887",
"w  c #718386",
"e  c #74868A",
"r  c #798A8D",
"t  c #7D8885",
"y  c #7C8F92",
"u  c #789399",
"i  c #6A848A",
"p  c #7E9CA2",
"a  c #8C8B85",
"s  c #898580",
"d  c #908D87",
"f  c #928E89",
"g  c #93878A",
"h  c #8D938B",
"j  c #86958C",
"k  c #9C9B81",
"l  c #96928C",
"z  c #98948E",
"x  c #819295",
"c  c #85999D",
"v  c #87979C",
"b  c #9A9791",
"n  c #969796",
"m  c #A19F81",
"M  c #AA8595",
"N  c #AB8697",
"B  c #B38D9E",
"V  c #A09D9B",
"C  c #B2909F",
"Z  c #9FA085",
"A  c #96A69C",
"S  c #A6A784",
"D  c #AAAA82",
"F  c #A3A48C",
"G  c #ADAD8C",
"H  c #B1B187",
"J  c #B4B48A",
"K  c #B9B88D",
"L  c #A4AD95",
"P  c #AFAD97",
"I  c #A3A49D",
"U  c #A9A999",
"Y  c #B1AE95",
"T  c #B0AD9A",
"R  c #AAB39A",
"E  c #A9B198",
"W  c #B4B394",
"Q  c #BCBC94",
"!  c #B4B19D",
"~  c #BBBC99",
"^  c #B6BA98",
"/  c #869CA3",
"(  c #9C9FA2",
")  c #B68FA0",
"_  c #BA92A3",
"`  c #B899A6",
"'  c #8EA5A4",
"]  c #85A4AA",
"[  c #8BA6AC",
"{  c #8CA9AD",
"}  c #90AAAC",
"|  c #99A8A7",
" . c #8CAEB4",
".. c #97ADB2",
"X. c #98AFB4",
"o. c #8FB2BA",
"O. c #9CB2B4",
"+. c #92B6BC",
"@. c #9DB5BA",
"#. c #97B5B7",
"$. c #ACAAA4",
"%. c #A8A9A7",
"&. c #B2ADA6",
"*. c #A5B1A6",
"=. c #B3B2AB",
"-. c #BAB5AD",
";. c #BCBAAC",
":. c #B8B4A4",
">. c #A3BABD",
",. c #A5B9B7",
"<. c #B8BAB5",
"1. c #C0BF92",
"2. c #C99EB1",
"3. c #CBA1B3",
"4. c #D5A8BB",
"5. c #C0BBB3",
"6. c #C4BFB8",
"7. c #BFC199",
"8. c #ABC0BE",
"9. c #BDC3BC",
"0. c #C4C395",
"q. c #C5C598",
"w. c #C8C79A",
"e. c #CCCB9C",
"r. c #D0CF9E",
"t. c #D1D09F",
"y. c #D4D3A2",
"u. c #D8D7A5",
"i. c #DBDAA6",
"p. c #DEDDA9",
"a. c #C6C1B9",
"s. c #CBC5BD",
"d. c #C3C1B6",
"f. c #E0DFAB",
"g. c #E4E3AD",
"h. c #E7E6B0",
"j. c #E9E7B1",
"k. c #ECEAB3",
"l. c #95BBC3",
"z. c #A4BDC2",
"x. c #B8BCC0",
"c. c #DCADC2",
"v. c #E5B3C9",
"b. c #EEBAD1",
"n. c #F1BDD4",
"m. c #9DC6D0",
"M. c #ABC5CA",
"N. c #AEC9CE",
"B. c #A7C1C4",
"V. c #B1CACE",
"C. c #A5CDD5",
"Z. c #B3CDD1",
"A. c #A5D2DC",
"S. c #A8D5DE",
"D. c #B6D0D5",
"F. c #BAD5DA",
"G. c #BDD9DE",
"H. c #AAD7E1",
"J. c #AAD8E1",
"K. c #BFDBE1",
"L. c #CEC9C1",
"P. c #C5C9C4",
"I. c #D2CCC4",
"U. c #D7D1C9",
"Y. c #DAD4CC",
"T. c #DDD8CF",
"R. c #DFD9D1",
"E. c #DFD9D1",
"W. c #DADAD9",
"Q. c #E2DCD4",
"!. c #E6E0D7",
"~. c #E7E1D9",
"^. c #E8E2D9",
"/. c #E9E3D9",
"(. c #E9E3DA",
"). c #E9E3DB",
"_. c #EAE4DB",
"`. c #E9E3DA",
"'. c #C1DEE3",
"]. c #C3E0E6",
"[. c #C7E5EB",
"{. c #C9E6EC",
"}. c #CBE8EE",
"|. c #CCEAF0",
" X c #E3E3E3",
".X c gray96",
/* pixels */
"                                                                                          ",
"                                                                                          ",
"                                      $.6.f   ,                                           ",
"                          b z -     , =.T.U.s.Q.T.$.                                      ",
"                        -._.Q.Q.I.s.s.Y._._._.Q._.T.%                                     ",
"                  b =.$.Y._._._._._._.Q.6.Q.Q._._._.6.5.z                                 ",
"                  U._._._.Q.Q._.Q._._.-.k W W ! 5.U._._.T.,                               ",
"                  -._._._._._._._.E.5.Q j.k.y.q.K G ! I.!.d                               ",
"                b s._.!._.Q.I.a.:.Y w.g.y.u.D 9 S H e.Q :.$.U ,                           ",
"              f Q._._.!._.a.G w.u.h.k.f.7 9 8 6 7 7 9 1.D T E.T.s                         ",
"              l !._.!._.!.U.W j.k.k.k.j.t.y.p.y.q.1.q.r.e.e.! R.z                         ",
"                6._._.!._._.5.w.k.k.u.m 5 5 K k.k.k.k.k.h.w.D 4                           ",
"              $.Q._._._.!._.U.K k.r.1 G q.w.f.k.k.k.k.k.y.6 4 .                           ",
"              Y._._.Q.Q._.!.Q.W k.r.e.u.~ F G u.k.k.k.k.k.u.G *                           ",
"              s._.Q._._._.Q.L.Q k.k.u.6.W.| n V g.k.k.k.y.;.n ( n                         ",
"              z Q._._.Q._._.-.W h.e.W W..X%.v V y.k.k.h.~  Xx./ (                         ",
"            4 U.~.!._.!._.!.Q.5.Q 0.H ;.~. XI.I t.k.g.9 9 7.W.9.%.                        ",
"            b _.~._.!._.!._._.!.Y t.g.p.~ F k 2 p.k.i.0.7.H K 8 #                         ",
"              -./._._.!._.!._.T.Y j.k.k.y.7 2 J k.0.0.g.h.e.7 2 D K                       ",
"            b I.!._.!._.!._._.$.K k.k.k.g.y.p.k.k.f.9 7.t.t.9 g.k.k.9 z a                 ",
"            a._._.!._.!._.!.~.R.T f.k.k.k.k.k.k.k.k.p.7.7 9 u.k.k.k.i.:.L.                ",
"            b !.!._.!._.!.~._.T.P g.k.k.j.k.k.k.k.k.t.7.7.g.k.k.k.k.k.W -.                ",
"            I._._.!.!.!._._.T.U y.k.k.k.j.k.k.k.k.k.k.k.k.k.k.h.k.k.k.Q L.6.              ",
"          - E.!.!._./.~.~._.R.U t.k.k.k.k.k.k.k.k.k.k.k.k.k.k.k.k.k.k.1.I.U.              ",
"            f 5._.Q._.)./././.T.W k.k.k.k.k.k.k.k.k.k.k.k.k.k.k.k.k.k.W U.d               ",
"              =._._._._././._.U.W k.k.k.k.k.k.k.k.k.k.k.k.k.k.k.k.k.y.:._.I               ",
"              ;._.Q.Q._.!.L.s.P i.p.p.k.k.k.k.k.g.k.k.k.k.k.k.k.g.q.1 -.=.                ",
"              f Y.Q.&.I.L.Z 0.p.k.i.H K w.r.7.H r.k.h.k.k.k.g.J *                         ",
"                  ,   $ t G g.k.k.k.h.y.w.0.r.f.k.k.j.k.k.k.7.                            ",
"                      >.] +.A L e.g.k.k.k.k.k.k.k.k.j.j.k.g.3                             ",
"                    O.{.@.o.A.m. .A L 7.t.p.f.g.f.k.g.u.u.7.                              ",
"                  w K.}.{.z. .C.J.S.m.l.#.' A A A j < ' } { o                             ",
"                  >.[.}.[.{.M.{ +.m.H.H.H.H.H.A.l.i 0 u A.S.0                             ",
"                r ].}.}.[.{.{.].B. .]  .+.+. .{ +.{ = w { ] @.>.                          ",
"                @.|.[.}.{.}.[.}.}.{.K.N.B.M.N.'.{.Z.] y Z.K.{.{.z.                        ",
"              0 K.|.F.K.{.[.[.}.{.{.{.|.{.|.{.{.{.{./ = [ }.{.{.}.Z.x                     ",
"              ..{.[.X.G.{.}.{.}.{.{.{.{.{.{.{.{.{.|.M.p p N.{.{.{.}.'...                  ",
"              D.}.F.@.}.[.[.[.[.[.{.{.{.{.{.[.{.{.{.[.z.@.'.{.|.{.[.{.{.>.                ",
"            y [.[.} D.}.{.}.{.].'.{.{.{.{.{.{.{.{.{.{.|.{.{.[.{.{.{.{.}.].r               ",
"            ..}.{.>.j D.'.[.].O.'.}.{.{.{.{.[.[.{.{.{.{.{.{.{.{.{.{.[.{.[.v               ",
"            M.}.{.G.L ^ E R O.O.{.{.{.{.{.{.{.}.{.{.[.{.{.{.{.{.{.{.{.}.K.                ",
"            G.}.{.F.^ k.k.p.h N.{.}.{.}.{.{.].{.{.}.{.{.{.{.{.{.[.{.{.{.].v               ",
"          e ].{.{.G.R k.k.y.,.}.{.{.[.[.{.{.{.}.{.[.[.{.{.{.{.{.{.{.{.{.}.N.              ",
"          v [.}.{.].E j.k.7.Z.}.{.{.{.{.[.{.[.{.[.}.{.}.{.{.{.{.{.{.{.{.{.{.x             ",
"          } {.[.[.}.*.p.k.W F.|.{.{.{.{.{.{.{.{.[.{.[.[.[.{.{.{.{.{.{.{.{.{.>.            ",
"          @.|.{.[.}.,.r.k.R K.{.{.{.{.{.{.[.{.{.{.}.{.}.{.{.{.{.[.}.{.{.{.}.G.            ",
"          z.{.{.{.}.,.e.k.E [.[.[.{.{.{.{.}.{.{.{.[.{.{.{.{.{.|.{.{.{.{.[.{.'.e           ",
"          B.}.}.[.K.L j.k.*.'.{.{.{.{.{.[.{.[.{.[.}.{.{.{.{.].{.{.{.{.}.{.{.{.v           ",
"          M.{.{.{.K.S j.j.L '.{.{.{.{.{.}.}.[.{.[.{.[.{.[.}.{.{.{.{.[.{.{.{.{.[           ",
"          Z.}.{.{...< 6 8 ,.{.}.[.{.[.}.[.[.[.}.[.}.}.}.{.{.[.{.[.}.{.}.{.{.{...          ",
"          G.{.{.}.'.,.,.B.'.{.[.{.}.{.{.[.}.[.{.[.{.[.[.{.}.[.}.[.{.[.{.[.}.}.z.          ",
"        r N.].{.{.{.|.}.}.{.}.{.}.[.[.[.[.}.[.}.{.}.[.}.{.{.[.}.{.}.{.}.{.}.'.M.          ",
"            } G.].'.].{.}.{.{.}.{.{.|.{.{.{.{.{.[.}.{.{.[.}.{.}.{.[.'.].[.z.=             ",
"                e 0 x N.].].'.Z.K.|.{.{.}.{.].{.}.}.'.Z.F.].K.G.B.x 0 y y                 ",
"                        e y & S W *.,.B.>.v e v #./ L 7.W < w                             ",
"                              0.k.f.w.@           @ F ~ ^ *                               ",
"                              Z e.r.W             h s.I <.n                               ",
"                            $ 9.*.=.P.h           a <.I l ; O O                           ",
"                            & P.%.| b O X o       g <.V.n 3.B 3.q                         ",
"                            $ 9.<.%.q 2.N _ +   : 2._ &.3.n.c.n.v.>                       ",
"                            C $.=.%.` v._ n.3.:     q M ) ) ) M :                         ",
"                            M 2.4.4.b.E.n.n.b.:                                           ",
"                                : M N _ _ M :                                             ",
"                                                                                          "
};
