/* XPM */
static char *result[] = {
/* columns rows colors chars-per-pixel */
"32 32 39 1 ",
"  c #683D28",
". c #673C27",
"X c #653A25",
"o c #643924",
"O c #633823",
"+ c #643824",
"@ c #683C28",
"# c #663B26",
"$ c #623622",
"% c #5D321D",
"& c #5A2E1A",
"* c #582D19",
"= c #582C18",
"- c #572C18",
"; c #5C311D",
": c #603521",
"> c #613521",
", c #5A2F1B",
"< c #572B18",
"1 c #562B17",
"2 c #562A16",
"3 c #5F341F",
"4 c #673C28",
"5 c #5C301C",
"6 c #572B17",
"7 c #562A17",
"8 c #592D19",
"9 c #552A16",
"0 c #613622",
"q c #633723",
"w c #5E331F",
"e c #673B27",
"r c #5E321E",
"t c #643925",
"y c #592E1A",
"u c #5D321E",
"i c #5B2F1B",
"p c #653925",
"a c white",
/* pixels */
"                                ",
"                                ",
"                                ",
"                                ",
"                                ",
"                                ",
"                                ",
"                                ",
"                                ",
"                                ",
"                    .XoOOO+X..  ",
"                 @#$%&*=-=*&;:X@",
"                #>,<1111111121&3",
"              4+5671111111111111",
"             .$89111111111111111",
"            .0*11111111111111111",
"            q*111111111111111111",
"           X,1111111111111111111",
"          @w11111111111111111111",
"         @+*71111111111111111111",
"         er111111111111111111111",
"         ty111111111111111111111",
"         >1111111111111111111111",
"        .u1111111111111111111111",
"        #i2111111111111111111111",
"        o82111111111111111111111",
"        o*1111111111111111111111",
"        O-1111111111111111111111",
"        O-1111111111111111111111",
"        o*1111111111111111111111",
"        p*9111111111111111111111",
"        #,2111111111111111111111"
};
