/* XPM */
static char *eba17b81a21c4dff963410810a0f9113d9fYVW6g8dVLiXYv[] = {
/* columns rows colors chars-per-pixel */
"130 120 29 1 ",
"  c #542815",
". c #552915",
"X c #552A16",
"o c #562B17",
"O c #572B17",
"+ c #572B18",
"@ c #572C18",
"# c #582C18",
"$ c #592D19",
"% c #5B2F1B",
"& c #5B301B",
"* c #5B301C",
"= c #5E331E",
"- c #5F331F",
"; c #5F341F",
": c #5F3420",
"> c #603420",
", c #603520",
"< c #633723",
"1 c #633823",
"2 c #643824",
"3 c #673B27",
"4 c #673C27",
"5 c #673C28",
"6 c #683C28",
"7 c #683D28",
"8 c #693E29",
"9 c #6A3E2A",
"0 c #6A3F2A",
/* pixels */
"7777777777777777777777777777777777777777777777777777777777777777777777777777777777777777777777777777777777777777777777777777777777",
"7777777777777777777777777777777777777777777777777777777777777777777777777777777777777777777777777777777777777777777777777777777777",
"7777777777777777777777777777777777777777777777777777777777777777777777777777777777777777777777777777777777777777777777777777777777",
"7777777777777777777777777777777777777777777777777777777777777777777777777777777777777777777777777777777777777777777777777777777777",
"7777777777777777777777777777777777777777777777777777777777777777777777777777777777777777777777777777777777777777777777777777777777",
"7777777777777777777777777777777777777777777777777777777777777777777777777777777777777777777777777777777777777777777777777777777777",
"7777777777777777777777777777777777777777777777777777777777777777777777777777777777777777777777777777777777777777777777777777777777",
"7777777777777777777777777777777777777777777777777777777777777777777777777777777777777777777777777777777777777777777777777777777777",
"7777777777777777777777777777777777777777777777777777777777777777777777777777777777777777777777777777777777777777777777777777777777",
"7777777777777777777777777777777777777777777777777777777777777777777777777777777777777777777777777777777777777777777777777777777777",
"7777777777777777777777777777777777777777777777777777777777777777777777777777777777777777777777777777777777777777777777777777777777",
"7777777777777777777777777777777777777777777777777777777777777777777777777777777777777777777777777777777777777777777777777777777777",
"7777777777777777777777777777777777777777777777777777777777777777777777777777777777777777777777777777777777777777777777777777777777",
"7777777777777777777777777777777777777777777777777777777777777777777777777777777777777777777777777777777777777777777777777777777777",
"7777777777777777777777777777777777777777777777777777777777777777777777777777777777777777777777777777777777777777777777777777777777",
"7777777777777777777777777777777777777777777777777777777777777777777777777777777777777777777777777777777777777777777777777777777777",
"7777777777777777777777777777777777777777777777777777777777777777777777777777777777777777777777777777777777777777777777777777777777",
"7777777777777777777777777777777777777777777777777777777777777777777777777777777777777777777777777777777777777777777777777777777777",
"7777777777777777777777777777777777777777777777777777777777777777777777777777777777777777777777777777777777777777777777777777777777",
"7777777777777777777777777777777777777777777777777777777777777777777777777777777777777777777777777777777777777777777777777777777777",
"7777777777777777777777777777777777777777777777777777777777777777777777777777777777777777777777777777777777777777777777777777777777",
"7777777777777777777777777777777777777777777777777777777777777777777777777777777777777777777777777777777777777777777777777777777777",
"7777777777777777777777777777777777777777777777777777777777777777777777777777777777777777777777777777777777777777777777777777777777",
"7777777777777777777777777777777777777777777777777777777777777777777777777777777777777777777777777777777777777777777777777777777777",
"7777777777777777777777777777777777777777777777777777777777777777777777777777777777777777777777777777777777777777777777777777777777",
"7777777777777777777777777777777777777777777777777777777777777777777777777777777777777777777777777777777777777777777777777777777777",
"7777777777777777777777777777777777777777777777777777777777777777777777777777777777777777777777777777777777777777777777777777777777",
"7777777777777777777777777777777777777777777777777777777777777777777777777777777777777777777777777777777777777777777777777777777777",
"7777777777777777777777777777777777777777777777777777777777777777777777777777777777777777777777777777777777777777777777777777777777",
"7777777777777777777777777777777777777777777777777777777777777777777777777777777777777777777777777777777777777777777777777777777777",
"7777777777777777777777777777777777777777777777777777777777777777777777777777777777777777777777777777777777777777777777777777777777",
"7777777777777777777777777777777777777777777777777777777777777777777777777777777777777777777777777777777777777777777777777777777777",
"7777777777777777777777777777777777777777777777777777777777777777777777777777777784848484848484847777777784848484848484848484848477",
"7777777777777777777777777777777777777777777777777777777777777777777777777777777748484848484848487777777748484848484848484848484877",
"7777777777777777777777777777777777777777777777777777777777777777777777777777777784848484848484847777077784768484848484848484848477",
"7777777777777777777777777777777777777777777777777777777777777777777777777777777748484866484848667777777748674848484848484848484877",
"7777777777777777777777777777777777777777777777777777777777777777777777777777777784846444846848444444666666766666848484848686884877",
"7777777777777777777777777777777777777777777777777777777777777777777777777777777748486444448486644444666646666663666666664644468477",
"7777777777777777777777777777777777777777777777777777777777777777777777777777776684846444444866664433333344443433444444444444484877",
"7777777777777777777777777777777777777777777777777777777777777777777777777777766748484444448466677767766744444433444444444444448476",
"77777777777777777777777777777777777777777777777777777777777777777766677777777334844444776,31,,,=====;==;=:,,,333677777334447777766",
"7777777777777777777777777777777777777777777777777777777777777777776767777377776784443=,,--$&$%$$$+@$$$@$$*&*%===,,3634334444477767",
"7777777777777777777777777777777777777777777777777777777777777777777743776337733741;;=+$$OOXXXXXO@X@+@XX$X$X@XX+$$$$;,,634747777434",
"777777777777777777777777777777777777777777777777777777777777777777777777777733,,;;;@+X XXXXXXXXXXXXXXXXXXXXXXXXXXXX$$$%,;147773337",
"7777777777777777777777777777777777777777777777777777777777777777444444446773<>%$XXXXX+X+$X$$X$X@X@@X@XXX+$+$XXX$+#XXXX X$*,3766677",
"7777777777777777777777777777777777777777777777777777777777777777774333773>==%##XXXXX+X@XXXXO$X@X@XX@X@X$XX+XXXX$+X#X+XXX@$$*=,3774",
"777777777777777777777777777777777777777777777777777777777777777777773373>=##OXXXXX$XX$X@X$XXXXX@X@XX@XXX+XXXXXXXOXXXX$@@@@X++$=,43",
"7777777777777777777777777777777777777777777777777777777777777777747743==$##XOXX++#XXXX$XOOO$XX@X@X$XX$$XX+X@X$XXX#XXX@XXXXXX+++$;,",
"77777777777777777777777777777777777777777777777777777777777777773333<-$XXX$XXO$X$@XXX@X$$X$+@X$$@@@@@@@@@@@@@$X$OOXXXXX XXX$@XXX$$",
"7777777777777777777777777777777777777777777777777777777777777777771$XXX$OXXXXXXXX@+XXXXXXXXX@XXXX@X@X@X@XXX@XX@@XXXOX$X$XXXXXXX+$X",
"77777777777777777777777777777777777777777777777777777777333577753&&$XXXXXXOXXX$X@X@XX+X@X@X@X@X@@X@X@X@X@X@X@X@X+XOX@X+@X#X+$X$$X@",
"777777777777777777777777777777777777777777777777777777776336733,=$XX$XXXXOX$$X$XX@X@+X+X@X@X@X@XX@X@X@X@X@X@X@X@X#XOX@XXXX#XXXXX@X",
"77777777777777777777777777777777777777777777777777777777766552,$XX+X$XXXX@X@X@X@@X@X@X@XX@X@X@X@@X@X@X@X@X@X@X@X+XX@X@X@@X@X+X@XX@",
"777777777777777777777777777777777777777777777777777777656773,,$XXXXX@XX$@X@X+X@XX@X@X@X@@X@X@X@XX@X@X@X@X@X@X@X@X#@X@X@XX@X@X+X@@X",
"77777777777777777777777777777777777777777777777777774433566,,XXXXXXXX$$XX@X@X@X@@X@X@X@XX@X@X@X@@X@X@X@X@X@X@X@XX+X@X@X@@X@X@X@XX@",
"7777777777777777777777777777777777777777777777777774443336,=XXX$XXXX@XXX@X@X@X@XX@X@X@X@@X@X@X@XX@X@X@X@X@X@X@X@#X+X@X@XX@X@X@X@@X",
"777777777777777777777777777777777777777777777777773444441;$XXXXXXXXXX@$XX@@X@X@X@X@X@X@X@X@X@X@X@X@X@X@X@X@X@X@X@X@X@X@X@X@X@X@XX@",
"77777777777777777777777777777777777777777777777777444433;$XXX$$XXXX@@XX@@XX@X@X@X@X@X@X@X@X@X@X@X@X@X@X@X@X@X@X@X@X@X@X@X@X@X@X@@X",
"7777777777777777777777777777777777777777777777777744443=$+XXXX$X$XXXX+XXXX+X@X@X@X@X@X@X@X@X@X@X@X@X@X@X@X@X@X@X@X@X@X@X@X@X@X@XX@",
"777777777777777777777777777777777777777777777777774433,XXX$X$XXXX$$+XXXXX+X@X@X@X@X@X@X@X@X@X@X@X@X@X@X@X@X@X@X@X@X@X@X@X@X@X@X@@X",
"77777777777777777777777777777777777777777777736333453=$X+X$XX@X@#X$X@X@X@X@X@X@X@X@X@X@X@X@X@X@X@X@X@X@X@X@X@X@X@X@X@X@X@X@X@X@XX@",
"7777777777777777777777777777777777777777777777766733;$@XX@X@@X@XX+XXX@X@X@X@X@X@X@X@X@X@X@X@X@X@X@X@X@X@X@X@X@X@X@X@X@X@X@X@X@X@@X",
"777777777777777777777777777777777777777777777777733:&XX@@X@XX@X@@X$X@X@X@X@X@X@X@X@X@X@X@X@X@X@X@X@X@X@X@X@X@X@X@X@X@X@X@X@X@X@XX@",
"77777777777777777777777777777777777777777777777373,$XXXXX@X@@X@XX@X@X@X@X@X@X@X@X@X@X@X@X@X@X@X@X@X@X@X@X@X@X@X@X@X@X@X@X@X@X@X@@X",
"7777777777777777777777777777777777777777777743336<;XXX$XX@X@X@X@@X@X@X@X@X@X@X@X@X@X@X@X@X@X@X@X@X@X@X@X@X@X@X@X@X@X@X@X@X@X@X@XX@",
"777777777777777777777777777777777777777777774333>;XXXXX+@X@X@X@XX@X@X@X@X@X@X@X@X@X@X@X@X@X@X@X@X@X@X@X@X@X@X@X@X@X@X@X@X@X@X@X@@X",
"777777777777777777777777777777777777777777775353>$XXX+XXX@X@X@X@@X@X@X@X@X@X@X@X@X@X@X@X@X@X@X@X@X@X@X@X@X@X@X@X@X@X@X@X@X@X@X@XX@",
"77777777777777777777777777777777777777777777545,=X X$XX$@X@X@X@XX@X@X@X@X@X@X@X@X@X@X@X@X@X@X@X@X@X@X@X@X@X@X@X@X@X@X@X@X@X@X@X@@X",
"77777777777777777777777777777777777777777777773=XXXOX+XXX@X@X@X@@X@X@X@X@X@X@X@X@X@X@X@X@X@X@X@X@X@X@X@X@X@X@X@X@X@X@X@X@X@X@X@XX@",
"7777777777777777777777777777777777777777777777=XXX#XX+X+@X@X@X@XX@X@X@X@X@X@X@X@X@X@X@X@X@X@X@X@X@X@X@X@X@X@X@X@X@X@X@X@X@X@X@X@@X",
"777777777777777777777777777777777777777773775,*$XXX$XXX@X@X@X@X@@X@X@X@X@X@X@X@X@X@X@X@X@X@X@X@X@X@X@X@X@X@X@X@X@X@X@X@X@X@X@X@XX@",
"777777777777777777777777777777777777777777371=$XXXX+$XXX@X@X@X@XX@X@X@X@X@X@X@X@X@X@X@X@X@X@X@X@X@X@X@X@X@X@X@X@X@X@X@X@X@X@X@X@@X",
"77777777777777777777777777777777777777567777,$+XX+X$##XXX@X@X@X@@X@X@X@X@X@X@X@X@X@X@X@X@X@X@X@X@X@X@X@X@X@X@X@X@X@X@X@X@X@X@X@XX@",
"7777777777777777777777777777777777777333777,%+XXXX##XX#X@X@X@X@XX@X@X@X@X@X@X@X@X@X@X@X@X@X@X@X@X@X@X@X@X@X@X@X@X@X@X@X@X@X@X@X@@X",
"7777777777777777777777777777777777775433773:$ X+##XXXXX+X@X@X@X@@X@X@X@X@X@X@X@X@X@X@X@X@X@X@X@X@X@X@X@X@X@X@X@X@X@X@X@X@X@X@X@XX@",
"777777777777777777777777777777777777743377,$++++#XXXXX#X@X@X@X@XX@X@X@X@X@X@X@X@X@X@X@X@X@X@X@X@X@X@X@X@X@X@X@X@X@X@X@X@X@X@X@X@@X",
"77777777777777777777777777777777777744443,,$XXX+$XX+X#X#X@X@X@X@@X@X@X@X@X@X@X@X@X@X@X@X@X@X@X@X@X@X@X@X@X@X@X@X@X@X@X@X@X@X@X@XX@",
"77777777777777777777777777777777777744776==#X$XXX+XX$#$X@X@X@X@XX@X@X@X@X@X@X@X@X@X@X@X@X@X@X@X@X@X@X@X@X@X@X@X@X@X@X@X@X@X@X@X@@X",
"77777777777777777777777777777777777733776=$XXX$XX+X$X$X+X@X@X@X@@X@X@X@X@X@X@X@X@X@X@X@X@X@X@X@X@X@X@X@X@X@X@X@X@X@X@X@X@X@X@X@XX@",
"77777777777777777777777777777777777747776%$XX$XX+X$X$+XX@X@X@X@XX@X@X@X@X@X@X@X@X@X@X@X@X@X@X@X@X@X@X@X@X@X@X@X@X@X@X@X@X@X@X@X@@X",
"7777777777777777777777777777777777771354;XX+X@X@X@XXX$X@X@X@X@X@@X@X@X@X@X@X@X@X@X@X@X@X@X@X@X@X@X@X@X@X@X@X@X@X@X@X@X@X@X@X@X@XX@",
"7777777777777777777777777777777777771373=XX@@X@X@XX$@X@X@X@X@X@XX@X@X@X@X@X@X@X@X@X@X@X@X@X@X@X@X@X@X@X@X@X@X@X@X@X@X@X@X@X@X@X@@X",
"7777777777777777777777777777777777773451$XXXX@X@X@X@X@X@X@X@X@X@@X@X@X@X@X@X@X@X@X@X@X@X@X@X@X@X@X@X@X@X@X@X@X@X@X@X@X@X@X@X@X@XX@",
"777777777777777777777777777777777767445,$XX+@X@X@X@X@X@X@X@X@X@XX@X@X@X@X@X@X@X@X@X@X@X@X@X@X@X@X@X@X@X@X@X@X@X@X@X@X@X@X@X@X@X@@X",
"777777777777777777777777777777777733443%XX$XX@X@X@X@X@X@X@X@X@X@@X@X@X@X@X@X@X@X@X@X@X@X@X@X@X@X@X@X@X@X@X@X@X@X@X@X@X@X@X@X@X@XX@",
"77777777777777777777777777777777773374,$XXX@@X@X@X@X@X@X@X@X@X@XX@X@X@X@X@X@X@X@X@X@X@X@X@X@X@X@X@X@X@X@X@X@X@X@X@X@X@X@X@X@X@X@@X",
"77777777777777777777777777777777776377=XXX@XX@X@X@X@X@X@X@X@X@X@@X@X@X@X@X@X@X@X@X@X@X@X@X@X@X@X@X@X@X@X@X@X@X@X@X@X@X@X@X@X@X@XX@",
"77777777777777777777777777777777776377=XXXXX$X@X@X@X@X@X@X@X@X@XX@X@X@X@X@X@X@X@X@X@X@X@X@X@X@X@X@X@X@X@X@X@X@X@X@X@X@X@X@X@X@X@@X",
"77777777777777777777777777777777544335$XOOXOO#X$X@X@X@X@X@X@X@X@@X@X@X@X@X@X@X@X@X@X@X@X@X@X@X@X@X@X@X@X@X@X@X@X@X@X@X@X@X@X@X@XX@",
"7777777777777777777777777777777754435,$XX$XXOXXX@X@X@X@X@X@X@X@XX@X@X@X@X@X@X@X@X@X@X@X@X@X@X@X@X@X@X@X@X@X@X@X@X@X@X@X@X@X@X@X@@X",
"7777777777777777777777777777777744333=$X$$XX$X#XX@X@X@X@X@X@X@X@@X@X@X@X@X@X@X@X@X@X@X@X@X@X@X@X@X@X@X@X@X@X@X@X@X@X@X@X@X@X@X@XX@",
"7777777777777777777777777777777744333=#X$XXX$@X+@X@X@X@X@X@X@X@XX@X@X@X@X@X@X@X@X@X@X@X@X@X@X@X@X@X@X@X@X@X@X@X@X@X@X@X@X@X@X@X@@X",
"7777777777777777777777777777777744446$XXXXXXXX@XX@X@X@X@X@X@X@X@@X@X@X@X@X@X@X@X@X@X@X@X@X@X@X@X@X@X@X@X@X@X@X@X@X@X@X@X@X@X@X@XX@",
"777777777777777777777777777777774444,=#X#$XX$XX@@X@X@X@X@X@X@X@XX@X@X@X@X@X@X@X@X@X@X@X@X@X@X@X@X@X@X@X@X@X@X@X@X@X@X@X@X@X@X@X@@X",
"777777777777777777777777777777754444,$XXOXXX@X@XX@X@X@X@X@X@X@X@@X@X@X@X@X@X@X@X@X@X@X@X@X@X@X@X@X@X@X@X@X@X@X@X@X@X@X@X@X@X@X@XX@",
"777777777777777777777777777777744444=$XXXXXXX@X@@X@X@X@X@X@X@X@XX@X@X@X@X@X@X@X@X@X@X@X@X@X@X@X@X@X@X@X@X@X@X@X@X@X@X@X@X@X@X@X@@X",
"777777777777777777777777777777774444*XXXXX+X+X$@X@X@X@X@X@X@X@X@@X@X@X@X@X@X@X@X@X@X@X@X@X@X@X@X@X@X@X@X@X@X@X@X@X@X@X@X@X@X@X@XX@",
"777777777777777777777777777777774441&@X$@XX$XXXX@X@X@X@X@X@X@X@XX@X@X@X@X@X@X@X@X@X@X@X@X@X@X@X@X@X@X@X@X@X@X@X@X@X@X@X@X@X@X@X@@X",
"777777777777777777777777777777774443&@XXX@$$X@@XX@X@X@X@X@X@X@X@@X@X@X@X@X@X@X@X@X@X@X@X@X@X@X@X@X@X@X@X@X@X@X@X@X@X@X@X@X@X@X@XX@",
"777777777777777777777777777777774443&X@$@X$XX@X@@X@X@X@X@X@X@X@XX@X@X@X@X@X@X@X@X@X@X@X@X@X@X@X@X@X@X@X@X@X@X@X@X@X@X@X@X@X@X@X@@X",
"777777777777777777777777777777774443=XX@X+X@+X@XX@X@X@X@X@X@X@X@@X@X@X@X@X@X@X@X@X@X@X@X@X@X@X@X@X@X@X@X@X@X@X@X@X@X@X@X@X@X@X@XX@",
"777777777777777777777777777777774433$$@XX$@X@@X@@X@X@X@X@X@X@X@XX@X@X@X@X@X@X@X@X@X@X@X@X@X@X@X@X@X@X@X@X@X@X@X@X@X@X@X@X@X@X@X@@X",
"777777777777777777777777777777774451$$$XX+X@@X@XX@X@X@X@X@X@X@X@@X@X@X@X@X@X@X@X@X@X@X@X@X@X@X@X@X@X@X@X@X@X@X@X@X@X@X@X@X@X@X@XX@",
"777777777777777777777777777777773333$XXXX$@XX@X@@X@X@X@X@X@X@X@XX@X@X@X@X@X@X@X@X@X@X@X@X@X@X@X@X@X@X@X@X@X@X@X@X@X@X@X@X@X@X@X@@X",
"777777777777777777777777777777774431@XX@X$XXX@X@X@X@X@X@X@X@X@X@@X@X@X@X@X@X@X@X@X@X@X@X@X@X@X@X@X@X@X@X@X@X@X@X@X@X@X@X@X@X@X@XX@",
"777777777777777777777777777777774431@XXX@X$X@X@X@X@X@X@X@X@X@X@XX@X@X@X@X@X@X@X@X@X@X@X@X@X@X@X@X@X@X@X@X@X@X@X@X@X@X@X@X@X@X@X@@X",
"777777777777777777777777777777774441$XX@X$X@X@X@X@X@X@X@X@X@X@X@@X@X@X@X@X@X@X@X@X@X@X@X@X@X@X@X@X@X@X@X@X@X@X@X@X@X@X@X@X@X@X@XX@",
"777777777777777777777777777777774431&X$XX@@X$X@X@X@X@X@X@X@X@X@XX@X@X@X@X@X@X@X@X@X@X@X@X@X@X@X@X@X@X@X@X@X@X@X@X@X@X@X@X@X@X@X@@X",
"777777777777777777777777777777774433$@@XX+X@X@X@X@X@X@X@X@X@X@X@@X@X@X@X@X@X@X@X@X@X@X@X@X@X@X@X@X@X@X@X@X@X@X@X@X@X@X@X@X@X@X@XX@",
"777777777777777777777777777777774443=$XXX$@X$@@X@X@X@X@X@X@X@X@XX@X@X@X@X@X@X@X@X@X@X@X@X@X@X@X@X@X@X@X@X@X@X@X@X@X@X@X@X@X@X@X@@X",
"777777777777777777777777777777774444$++$X@@@+X@XX@X@X@X@X@X@X@X@@X@X@X@X@X@X@X@X@X@X@X@X@X@X@X@X@X@X@X@X@X@X@X@X@X@X@X@X@X@X@X@XX@",
"777777777777777777777777777777774443&+X@@X@@X@X@@X@X@X@X@X@X@X@XX@X@X@X@X@X@X@X@X@X@X@X@X@X@X@X@X@X@X@X@X@X@X@X@X@X@X@X@X@X@X@X@@X",
"777777777777777777777777777777774443&XX$X+$XX+XX@X@X@X@X@X@X@X@X@X@X@X@X@X@X@X@X@X@X@X@X@X@X@X@X@X@X@X@X@X@X@X@X@X@X@X@X@X@X@X@XX@",
"777777777777777777777777777777774443;XXXXX@XX@$XX@X@X@X@X@X@X@X@X@X@X@X@X@X@X@X@X@X@X@X@X@X@X@X@X@X@X@X@X@X@X@X@X@X@X@X@X@X@X@X@@X",
"777777777777777777777777777777774443=@XXXXXX@X@X@X@X@X@X@X@X@X@X@X@X@X@X@X@X@X@X@X@X@X@X@X@X@X@X@X@X@X@X@X@X@X@X@X@X@X@X@X@X@X@XX@",
"777777777777777777777777777777774443;$XX+XXXX@X@X@X@X@X@X@X@X@X@X@X@X@X@X@X@X@X@X@X@X@X@X@X@X@X@X@X@X@X@X@X@X@X@X@X@X@X@X@X@X@X@@X",
"7777777777777777777777777777777744431$XX+XXXOX+X@X@X@X@X@X@X@X@X@X@X@X@X@X@X@X@X@X@X@X@X@X@X@X@X@X@X@X@X@X@X@X@X@X@X@X@X@X@X@X@XX@",
"7777777777777777777777777777777744443=XXX$XXOOX#X@X@X@X@X@X@X@X@X@X@X@X@X@X@X@X@X@X@X@X@X@X@X@X@X@X@X@X@X@X@X@X@X@X@X@X@X@X@X@X@@X",
"7777777777777777777777777777777744443*$X$@XXOOXX@X@X@X@X@X@X@X@X@X@X@X@X@X@X@X@X@X@X@X@X@X@X@X@X@X@X@X@X@X@X@X@X@X@X@X@X@X@X@X@XX@",
"7777777777777777777777777777777744433=$X$XXX$X$XX@X@X@X@X@X@X@X@X@X@X@X@X@X@X@X@X@X@X@X@X@X@X@X@X@X@X@X@X@X@X@X@X@X@X@X@X@X@X@X@@X"
};
